<?xml version="1.0" encoding="utf-8"?>
<!-- Generator: Adobe Illustrator 23.0.3, SVG Export Plug-In . SVG Version: 6.00 Build 0)  -->
<svg version="1.1" id="Слой_1" xmlns="http://www.w3.org/2000/svg" xmlns:xlink="http://www.w3.org/1999/xlink" x="0px" y="0px"
	 viewBox="0 0 212.6 96.6" style="enable-background:new 0 0 212.6 96.6;" xml:space="preserve">
<style type="text/css">
	.st0{fill:#31AA4F;}
	.st1{fill:#FFFFFF;}
	.st2{fill:#41555C;}
</style>
<path class="st0" d="M38.5,0C55.2,0,67.4,3.2,75,9.7s11.5,16.5,11.5,29.9s-3.9,23.3-11.8,29.5c-6.4,5-15.4,8-27.1,9V64.2H34.1v14.3
	h-9.7v18H0V0H38.5z"/>
<path class="st1" d="M57.8,28.8H24c-0.7,0-1.2-0.5-1.2-1.2v-0.8c0-0.7,0.5-1.2,1.2-1.2h33.9c0.7,0,1.2,0.5,1.2,1.2v0.8
	C59.1,28.1,58.5,28.8,57.8,28.8z"/>
<path class="st1" d="M33.2,63c-1.1,0-2-1.6-2-3.6v-3.6h19v3.6c0,2-0.8,3.6-2,3.6H33.2z"/>
<path class="st1" d="M48.3,9.4c1.1,0,2,2.6,2,5.8V21h-19v-5.8c0-3.2,0.8-5.8,2-5.8H48.3z"/>
<path class="st1" d="M53.1,32.2H28.5c-2.2,0-4-1.8-4-4v-2.3c0-2.2,1.8-4,4-4h24.6c2.2,0,4,1.8,4,4v2.3
	C57.2,30.6,55.4,32.2,53.1,32.2z"/>
<path class="st1" d="M58,39.9H24.1c-0.7,0-1.2-0.5-1.2-1.2v-0.8c0-0.7,0.5-1.2,1.2-1.2H58c0.7,0,1.2,0.5,1.2,1.2v0.8
	C59.2,39.5,58.7,39.9,58,39.9z"/>
<path class="st1" d="M53.3,43.6H28.6c-2.2,0-4-1.8-4-4v-2.3c0-2.2,1.8-4,4-4h24.6c2.2,0,4,1.8,4,4v2.3
	C57.3,41.9,55.5,43.6,53.3,43.6z"/>
<path class="st1" d="M58,51.1H24.1c-0.7,0-1.2-0.5-1.2-1.2V49c0-0.7,0.5-1.2,1.2-1.2H58c0.7,0,1.2,0.5,1.2,1.2v0.8
	C59.2,50.6,58.7,51.1,58,51.1z"/>
<path class="st1" d="M53.3,54.8H28.6c-2.2,0-4-1.8-4-4v-2.3c0-2.2,1.8-4,4-4h24.6c2.2,0,4,1.8,4,4v2.3C57.3,53,55.5,54.8,53.3,54.8z
	"/>
<path class="st2" d="M34.2,83.6h7.7c1.3,0,2.2,0.3,2.8,0.9s0.9,1.5,0.9,2.8v1.8c0,1.3-0.3,2.2-0.9,2.8c-0.6,0.6-1.5,0.9-2.8,0.9
	h-4.4v3.7h-3.3V83.6L34.2,83.6z M42.3,87.2c0-0.7-0.4-1.1-1.1-1.1h-3.7v4h3.7c0.7,0,1.1-0.4,1.1-1.1V87.2z"/>
<path class="st2" d="M58.4,96.4h-3.5l-4.4-7.7v7.7h-3.3V83.6h3.5l4.4,7.7v-7.7h3.3V96.4z"/>
<path class="st2" d="M70.8,96.4H60.6V83.6h10.2v2.6h-6.9v2.5h5.4v2.6h-5.4V94h6.9C70.8,94,70.8,96.4,70.8,96.4z"/>
<path class="st2" d="M77.7,92.6l3.1-9h3.6l-4.8,12.8h-3.7L71,83.6h3.6L77.7,92.6z"/>
<path class="st2" d="M96.3,89.2l-2.6,4.6h-2.6l-2.6-4.6v7.2h-3.3V83.6h3.5l3.7,6.8l3.7-6.8h3.5v12.8h-3.3
	C96.3,96.4,96.3,89.2,96.3,89.2z"/>
<path class="st2" d="M113.3,92.9c0,1.3-0.3,2.2-0.9,2.8c-0.6,0.6-1.5,0.9-2.8,0.9H105c-1.3,0-2.2-0.3-2.8-0.9
	c-0.6-0.6-0.9-1.5-0.9-2.8V87c0-1.3,0.3-2.2,0.9-2.8c0.6-0.6,1.5-0.9,2.8-0.9h4.6c1.3,0,2.2,0.3,2.8,0.9c0.6,0.6,0.9,1.5,0.9,2.8
	V92.9z M110,87c0-0.7-0.4-1.1-1.1-1.1h-3.1c-0.7,0-1.1,0.4-1.1,1.1v5.9c0,0.7,0.4,1.1,1.1,1.1h3.1c0.7,0,1.1-0.4,1.1-1.1V87z"/>
<path class="st2" d="M115.2,83.6h7.7c1.3,0,2.2,0.3,2.8,0.9c0.6,0.6,0.9,1.5,0.9,2.8v1.8c0,1.3-0.3,2.2-0.9,2.8
	c-0.6,0.6-1.5,0.9-2.8,0.9h-4.4v3.7h-3.3C115.2,96.5,115.2,83.6,115.2,83.6z M123.2,87.2c0-0.7-0.4-1.1-1.1-1.1h-3.7v4h3.7
	c0.7,0,1.1-0.4,1.1-1.1V87.2z"/>
<path class="st2" d="M139.7,92.9c0,1.3-0.3,2.2-0.9,2.8c-0.6,0.6-1.5,0.9-2.8,0.9h-4.6c-1.3,0-2.2-0.3-2.8-0.9s-0.9-1.5-0.9-2.8V87
	c0-1.3,0.3-2.2,0.9-2.8c0.6-0.6,1.5-0.9,2.8-0.9h4.6c1.3,0,2.2,0.3,2.8,0.9s0.9,1.5,0.9,2.8V92.9z M136.4,87c0-0.7-0.4-1.1-1.1-1.1
	h-3.1c-0.7,0-1.1,0.4-1.1,1.1v5.9c0,0.7,0.4,1.1,1.1,1.1h3.1c0.7,0,1.1-0.4,1.1-1.1V87z"/>
<path class="st2" d="M148.7,83.6c1.4,0,2.4,0.4,3.1,1.1c0.7,0.7,1.1,1.8,1.1,3.1v4.4c0,1.4-0.4,2.4-1.1,3.1
	c-0.7,0.7-1.8,1.1-3.1,1.1h-7.2V83.6H148.7z M149.6,87.8c0-1.1-0.5-1.6-1.6-1.6h-3.1v7.7h3.1c1.1,0,1.6-0.5,1.6-1.6V87.8z"/>
<path class="st2" d="M163,83.6h3.3V93c0,1.3-0.3,2.2-0.9,2.8c-0.6,0.6-1.5,0.9-2.8,0.9h-4.2c-1.3,0-2.2-0.3-2.8-0.9
	s-0.9-1.5-0.9-2.8v-9.4h3.3V93c0,0.7,0.4,1.1,1.1,1.1h2.7c0.7,0,1.1-0.4,1.1-1.1L163,83.6L163,83.6z"/>
<path class="st2" d="M168.1,93.7c3.4,0.2,5.6,0.3,6.8,0.3c0.3,0,0.5-0.1,0.7-0.2c0.2-0.2,0.2-0.4,0.2-0.7v-1.6h-4.2
	c-1.3,0-2.2-0.3-2.8-0.9s-0.9-1.5-0.9-2.8v-0.5c0-1.3,0.3-2.2,0.9-2.8s1.5-0.9,2.8-0.9h6.4v2.6h-5.7c-0.7,0-1.1,0.4-1.1,1.1v0.4
	c0,0.7,0.4,1.1,1.1,1.1h3.3c1.2,0,2.1,0.3,2.7,0.9c0.6,0.6,0.9,1.4,0.9,2.7v0.9c0,1.2-0.3,2.1-0.9,2.7c-0.5,0.5-1.4,0.9-2.7,0.9
	c-0.6,0-1.3,0-2,0l-1.7-0.1c-1.2-0.1-2.5-0.2-3.9-0.2L168.1,93.7L168.1,93.7z"/>
<path class="st2" d="M192,96.4h-3.3v-5.2h-4.6v5.2h-3.3V83.6h3.3v5h4.6v-5h3.3V96.4z"/>
<path class="st2" d="M197.5,96.4h-3.3V83.6h3.3v5h1.6l2.9-5h3.5l-3.6,6.3l3.6,6.5H202l-2.8-5.2h-1.6L197.5,96.4L197.5,96.4z"/>
<path class="st2" d="M212.6,96.4H206v-2.6h1.6v-7.7H206v-2.6h6.6v2.6H211v7.7h1.6V96.4z"/>
</svg>
